HIERARCHY
ROOT hip
{
  OFFSET 0 0 0
  CHANNELS 6 Xposition Yposition Zposition Zrotation Yrotation Xrotation
  JOINT abdomen
  {
    OFFSET 0 20.6881 -0.73152
    CHANNELS 3 Zrotation Xrotation Yrotation
    JOINT chest
    {
      OFFSET 0 11.7043 -0.48768
      CHANNELS 3 Zrotation Xrotation Yrotation
      JOINT neck
      {
        OFFSET 0 22.1894 -2.19456
        CHANNELS 3 Zrotation Xrotation Yrotation
        JOINT head
        {
          OFFSET -0.24384 7.07133 1.2192
          CHANNELS 3 Zrotation Xrotation Yrotation
          JOINT leftEye
          {
            OFFSET 4.14528 8.04674 8.04672
            CHANNELS 3 Zrotation Xrotation Yrotation
            End Site
            {
              OFFSET 1 0 0
            }
          }
          JOINT rightEye
          {
            OFFSET -3.6576 8.04674 8.04672
            CHANNELS 3 Zrotation Xrotation Yrotation
            End Site
            {
              OFFSET 1 0 0
            }
          }
        }
      }
      JOINT rCollar
      {
        OFFSET -2.68224 19.2634 -4.8768
        CHANNELS 3 Zrotation Xrotation Yrotation
        JOINT rShldr
        {
          OFFSET -8.77824 -1.95073 1.46304
          CHANNELS 3 Zrotation Xrotation Yrotation
          JOINT rForeArm
          {
            OFFSET -28.1742 -1.7115 0.48768
            CHANNELS 3 Zrotation Xrotation Yrotation
            JOINT rHand
            {
              OFFSET -22.5879 0.773209 7.07136
              CHANNELS 3 Zrotation Xrotation Yrotation
              JOINT rThumb1
              {
                OFFSET -1.2192 -0.487915 3.41376
                CHANNELS 3 Zrotation Xrotation Yrotation
                JOINT rThumb2
                {
                  OFFSET -3.37035 -0.52449 3.41376
                  CHANNELS 3 Zrotation Xrotation Yrotation
                  End Site
                  {
                    OFFSET -1.78271 -1.18214 1.43049
                  }
                }
              }
              JOINT rIndex1
              {
                OFFSET -7.75947 0.938293 5.60832
                CHANNELS 3 Zrotation Xrotation Yrotation
                JOINT rIndex2
                {
                  OFFSET -2.54057 -0.884171 1.56538
                  CHANNELS 3 Zrotation Xrotation Yrotation
                  End Site
                  {
                    OFFSET -1.62519 -0.234802 1.16502
                  }
                }
              }
              JOINT rMid1
              {
                OFFSET -8.24714 1.18213 3.41376
                CHANNELS 3 Zrotation Xrotation Yrotation
                JOINT rMid2
                {
                  OFFSET -3.10165 -0.590103 1.0647
                  CHANNELS 3 Zrotation Xrotation Yrotation
                  End Site
                  {
                    OFFSET -2.48547 -0.328903 0.83742
                  }
                }
              }
              JOINT rRing1
              {
                OFFSET -8.82822 0.546677 1.51678
                CHANNELS 3 Zrotation Xrotation Yrotation
                JOINT rRing2
                {
                  OFFSET -2.60934 -0.819778 -0.0198488
                  CHANNELS 3 Zrotation Xrotation Yrotation
                  End Site
                  {
                    OFFSET -2.33842 -0.294052 0.168128
                  }
                }
              }
              JOINT rPinky1
              {
                OFFSET -8.27202 -0.0477905 -0.4584
                CHANNELS 3 Zrotation Xrotation Yrotation
                JOINT rPinky2
                {
                  OFFSET -1.82734 -0.647385 -0.700984
                  CHANNELS 3 Zrotation Xrotation Yrotation
                  End Site
                  {
                    OFFSET -1.69225 -0.51767 -0.607171
                  }
                }
              }
            }
          }
        }
      }
      JOINT lCollar
      {
        OFFSET 2.68224 19.2634 -4.8768
        CHANNELS 3 Zrotation Xrotation Yrotation
        JOINT lShldr
        {
          OFFSET 8.77824 -1.95073 1.46304
          CHANNELS 3 Zrotation Xrotation Yrotation
          JOINT lForeArm
          {
            OFFSET 28.1742 -1.7115 0.48768
            CHANNELS 3 Zrotation Xrotation Yrotation
            JOINT lHand
            {
              OFFSET 22.5879 0.773209 7.07136
              CHANNELS 3 Zrotation Xrotation Yrotation
              JOINT lThumb1
              {
                OFFSET 1.2192 -0.487915 3.41376
                CHANNELS 3 Zrotation Xrotation Yrotation
                JOINT lThumb2
                {
                  OFFSET 3.37035 -0.52449 3.41376
                  CHANNELS 3 Zrotation Xrotation Yrotation
                  End Site
                  {
                    OFFSET 1.78271 -1.18214 1.43049
                  }
                }
              }
              JOINT lIndex1
              {
                OFFSET 7.75947 0.938293 5.60832
                CHANNELS 3 Zrotation Xrotation Yrotation
                JOINT lIndex2
                {
                  OFFSET 2.54057 -0.884171 1.56538
                  CHANNELS 3 Zrotation Xrotation Yrotation
                  End Site
                  {
                    OFFSET 1.62519 -0.234802 1.16502
                  }
                }
              }
              JOINT lMid1
              {
                OFFSET 8.24714 1.18213 3.41376
                CHANNELS 3 Zrotation Xrotation Yrotation
                JOINT lMid2
                {
                  OFFSET 3.10165 -0.590103 1.0647
                  CHANNELS 3 Zrotation Xrotation Yrotation
                  End Site
                  {
                    OFFSET 2.48547 -0.328903 0.83742
                  }
                }
              }
              JOINT lRing1
              {
                OFFSET 8.82822 0.546677 1.51678
                CHANNELS 3 Zrotation Xrotation Yrotation
                JOINT lRing2
                {
                  OFFSET 2.60934 -0.819778 -0.0198488
                  CHANNELS 3 Zrotation Xrotation Yrotation
                  End Site
                  {
                    OFFSET 2.33842 -0.294052 0.168128
                  }
                }
              }
              JOINT lPinky1
              {
                OFFSET 8.27202 -0.0477905 -0.4584
                CHANNELS 3 Zrotation Xrotation Yrotation
                JOINT lPinky2
                {
                  OFFSET 1.82734 -0.647385 -0.700984
                  CHANNELS 3 Zrotation Xrotation Yrotation
                  End Site
                  {
                    OFFSET 1.69225 -0.51767 -0.607171
                  }
                }
              }
            }
          }
        }
      }
    }
  }
  JOINT rButtock
  {
    OFFSET -8.77824 4.35084 1.2192
    CHANNELS 3 Zrotation Xrotation Yrotation
    JOINT rThigh
    {
      OFFSET 0 -1.70687 -2.19456
      CHANNELS 3 Zrotation Xrotation Yrotation
      JOINT rShin
      {
        OFFSET 0 -36.8199 0.73152
        CHANNELS 3 Zrotation Xrotation Yrotation
        JOINT rFoot
        {
          OFFSET 0.73152 -45.1104 -5.12064
          CHANNELS 3 Zrotation Xrotation Yrotation
          End Site
          {
            OFFSET -1.1221 -3.69964 12.103
          }
        }
      }
    }
  }
  JOINT lButtock
  {
    OFFSET 8.77824 4.35084 1.2192
    CHANNELS 3 Zrotation Xrotation Yrotation
    JOINT lThigh
    {
      OFFSET 0 -1.70687 -2.19456
      CHANNELS 3 Zrotation Xrotation Yrotation
      JOINT lShin
      {
        OFFSET 0 -36.8199 0.73152
        CHANNELS 3 Zrotation Xrotation Yrotation
        JOINT lFoot
        {
          OFFSET -0.73152 -45.1104 -5.12064
          CHANNELS 3 Zrotation Xrotation Yrotation
          End Site
          {
            OFFSET 1.1221 -3.69964 12.103
          }
        }
      }
    }
  }
}
MOTION
Frames:	6
Frame Time:	0.03333
0.002320000021427404 54.40390110015869 0.050000002374872565 10.317002296447754 28.240798950195312 7.935205936431885 -19.399295806884766 11.313715934753418 5.396466255187988 5.510375022888184 -9.860087394714355 1.5767641067504883 -8.810644149780273 17.919387817382812 -12.787500381469727 12.249783515930176 -26.636898040771484 -22.533906936645508 -0.0 0.0 -0.0 -0.0 0.0 -0.0 -0.0 0.0 -0.0 35.780914306640625 13.061420440673828 33.136722564697266 -14.669910430908203 -7.5083417892456055 26.912193298339844 -0.458601713180542 18.889400482177734 2.756322145462036 -0.0 0.0 -0.0 -0.0 0.0 -0.0 -0.0 0.0 -0.0 7.73087739944458 5.47489595413208 0.41732463240623474 -0.0 0.0 -0.0 2.9054994583129883 0.9650753736495972 0.10300876200199127 -0.0 0.0 -0.0 10.278595924377441 0.7317469120025635 0.026285577565431595 -0.0 0.0 -0.0 2.221662759780884 -0.7335850596427917 -0.20831839740276337 -0.0 0.0 -0.0 -112.26399993896484 50.48160934448242 50.630008697509766 28.060699462890625 -40.080894470214844 -84.06758880615234 0.9978097081184387 -27.1427059173584 4.131805896759033 -0.0 0.0 -0.0 -0.0 0.0 -0.0 -0.0 0.0 -0.0 -7.73087739944458 5.47489595413208 -0.41732463240623474 -0.0 0.0 -0.0 -2.9054994583129883 0.9650753736495972 -0.10300876200199127 -0.0 0.0 -0.0 -10.278595924377441 0.7317469120025635 -0.026285577565431595 -0.0 0.0 -0.0 -2.221662759780884 -0.7335850596427917 0.20831839740276337 -0.0 0.0 -0.0 -65.1476058959961 -55.47090530395508 -56.3267936706543 -2.5711441040039062 72.59933471679688 2.83785080909729 2.563720464706421 -2.3158981800079346 16.46969985961914 -0.0 0.0 -0.0 12.700679779052734 8.946246147155762 3.6767265796661377 -0.10742656141519547 35.7427978515625 -2.8100497722625732 7.867032051086426 -17.07349967956543 32.14299774169922
0.0042800000301213 54.38529849052429 0.0800000037997961 10.306309700012207 28.241605758666992 7.980594158172607 -19.391693115234375 11.288003921508789 5.375276565551758 5.524620532989502 -9.874570846557617 1.5738624334335327 -8.80340576171875 17.922298431396484 -12.796199798583984 12.324191093444824 -26.65069580078125 -22.534101486206055 -0.0 0.0 -0.0 -0.0 0.0 -0.0 -0.0 0.0 -0.0 35.75749206542969 13.066438674926758 33.096893310546875 -14.690694808959961 -7.52543306350708 26.95440101623535 -0.45646920800209045 18.847396850585938 2.7497332096099854 -0.0 0.0 -0.0 -0.0 0.0 -0.0 -0.0 0.0 -0.0 7.73087739944458 5.47489595413208 0.41732463240623474 -0.0 0.0 -0.0 2.9054994583129883 0.9650753736495972 0.10300876200199127 -0.0 0.0 -0.0 10.278595924377441 0.7317469120025635 0.026285577565431595 -0.0 0.0 -0.0 2.221662759780884 -0.7335850596427917 -0.20831839740276337 -0.0 0.0 -0.0 -112.32798767089844 50.492591857910156 50.66480255126953 28.06070327758789 -40.08119201660156 -84.06800079345703 1.013443946838379 -27.06856918334961 4.123937606811523 -0.0 0.0 -0.0 -0.0 0.0 -0.0 -0.0 0.0 -0.0 -7.73087739944458 5.47489595413208 -0.41732463240623474 -0.0 0.0 -0.0 -2.9054994583129883 0.9650753736495972 -0.10300876200199127 -0.0 0.0 -0.0 -10.278595924377441 0.7317469120025635 -0.026285577565431595 -0.0 0.0 -0.0 -2.221662759780884 -0.7335850596427917 0.20831839740276337 -0.0 0.0 -0.0 -65.19759368896484 -55.519287109375 -56.400997161865234 -2.588679313659668 72.68079376220703 2.853750467300415 2.5832698345184326 -2.385138750076294 16.457101821899414 -0.0 0.0 -0.0 12.728706359863281 8.968896865844727 3.675832986831665 -0.10823063552379608 35.68790054321289 -2.8103582859039307 7.863931655883789 -17.0552921295166 32.17030334472656
0.006380000013450626 54.36679720878601 0.08100000377453398 10.29638957977295 28.252105712890625 8.0468111038208 -19.386005401611328 11.252403259277344 5.311046600341797 5.538863182067871 -9.876641273498535 1.5590434074401855 -8.806888580322266 17.96369171142578 -12.805699348449707 12.407099723815918 -26.757402420043945 -22.532405853271484 -0.0 0.0 -0.0 -0.0 0.0 -0.0 -0.0 0.0 -0.0 35.68878936767578 13.111128807067871 33.0895881652832 -14.721407890319824 -7.5514936447143555 27.017105102539062 -0.4532635509967804 18.784008026123047 2.7398083209991455 -0.0 0.0 -0.0 -0.0 0.0 -0.0 -0.0 0.0 -0.0 7.73087739944458 5.47489595413208 0.41732463240623474 -0.0 0.0 -0.0 2.9054994583129883 0.9650753736495972 0.10300876200199127 -0.0 0.0 -0.0 10.278595924377441 0.7317469120025635 0.026285577565431595 -0.0 0.0 -0.0 2.221662759780884 -0.7335850596427917 -0.20831839740276337 -0.0 0.0 -0.0 -112.36399841308594 50.521697998046875 50.681297302246094 28.06290054321289 -40.06900405883789 -84.04559326171875 0.970039427280426 -26.98841094970703 4.100637435913086 -0.0 0.0 -0.0 -0.0 0.0 -0.0 -0.0 0.0 -0.0 -7.73087739944458 5.47489595413208 -0.41732463240623474 -0.0 0.0 -0.0 -2.9054994583129883 0.9650753736495972 -0.10300876200199127 -0.0 0.0 -0.0 -10.278595924377441 0.7317469120025635 -0.026285577565431595 -0.0 0.0 -0.0 -2.221662759780884 -0.7335850596427917 0.20831839740276337 -0.0 0.0 -0.0 -65.2934799194336 -55.57048797607422 -56.50557327270508 -2.6019787788391113 72.74781036376953 2.8667678833007812 2.599684715270996 -2.443397283554077 16.427501678466797 -0.0 0.0 -0.0 12.769197463989258 8.929640769958496 3.699775457382202 -0.10810093581676483 35.65669250488281 -2.8107903003692627 7.8602681159973145 -17.059690475463867 32.16200256347656
0.007619999996677507 54.351598024368286 0.07700000387558248 10.295511245727539 28.26039695739746 8.11039924621582 -19.37390899658203 11.244407653808594 5.263880729675293 5.540085315704346 -9.880949020385742 1.5470349788665771 -8.8239107131958 17.987897872924805 -12.814001083374023 12.45580005645752 -26.838499069213867 -22.536300659179688 -0.0 0.0 -0.0 -0.0 0.0 -0.0 -0.0 0.0 -0.0 35.57570266723633 13.175189971923828 33.107601165771484 -14.74721622467041 -7.573445796966553 27.06989288330078 -0.43521931767463684 18.715539932250977 2.7265779972076416 -0.0 0.0 -0.0 -0.0 0.0 -0.0 -0.0 0.0 -0.0 7.73087739944458 5.47489595413208 0.41732463240623474 -0.0 0.0 -0.0 2.9054994583129883 0.9650753736495972 0.10300876200199127 -0.0 0.0 -0.0 10.278595924377441 0.7317469120025635 0.026285577565431595 -0.0 0.0 -0.0 2.221662759780884 -0.7335850596427917 -0.20831839740276337 -0.0 0.0 -0.0 -112.37000274658203 50.57529830932617 50.667503356933594 28.06819725036621 -40.038692474365234 -83.99081420898438 0.9602953195571899 -27.00649070739746 4.101093292236328 -0.0 0.0 -0.0 -0.0 0.0 -0.0 -0.0 0.0 -0.0 -7.73087739944458 5.47489595413208 -0.41732463240623474 -0.0 0.0 -0.0 -2.9054994583129883 0.9650753736495972 -0.10300876200199127 -0.0 0.0 -0.0 -10.278595924377441 0.7317469120025635 -0.026285577565431595 -0.0 0.0 -0.0 -2.221662759780884 -0.7335850596427917 0.20831839740276337 -0.0 0.0 -0.0 -65.38541412353516 -55.62409973144531 -56.5885009765625 -2.6136224269866943 72.79668426513672 2.8789539337158203 2.609496831893921 -2.482501268386841 16.399690628051758 -0.0 0.0 -0.0 12.795697212219238 8.877176284790039 3.75937819480896 -0.10846208781003952 35.65629196166992 -2.8126816749572754 7.8604631423950195 -17.075407028198242 32.146297454833984
0.004830000034417026 54.33989763259888 0.06500000417872798 10.312714576721191 28.240596771240234 8.174897193908691 -19.355093002319336 11.263998031616211 5.233663558959961 5.52825927734375 -9.88748550415039 1.5379678010940552 -8.85451889038086 17.994897842407227 -12.821114540100098 12.4703950881958 -26.893795013427734 -22.54580307006836 -0.0 0.0 -0.0 -0.0 0.0 -0.0 -0.0 0.0 -0.0 35.41810607910156 13.25854206085205 33.150814056396484 -14.76819133758545 -7.5912346839904785 27.112695693969727 -0.4460630416870117 18.640995025634766 2.7173514366149902 -0.0 0.0 -0.0 -0.0 0.0 -0.0 -0.0 0.0 -0.0 7.73087739944458 5.47489595413208 0.41732463240623474 -0.0 0.0 -0.0 2.9054994583129883 0.9650753736495972 0.10300876200199127 -0.0 0.0 -0.0 10.278595924377441 0.7317469120025635 0.026285577565431595 -0.0 0.0 -0.0 2.221662759780884 -0.7335850596427917 -0.20831839740276337 -0.0 0.0 -0.0 -112.34600067138672 50.65320587158203 50.623497009277344 28.07649040222168 -39.99010467529297 -83.90380096435547 0.9961624145507812 -27.122501373291016 4.128177165985107 -0.0 0.0 -0.0 -0.0 0.0 -0.0 -0.0 0.0 -0.0 -7.73087739944458 5.47489595413208 -0.41732463240623474 -0.0 0.0 -0.0 -2.9054994583129883 0.9650753736495972 -0.10300876200199127 -0.0 0.0 -0.0 -10.278595924377441 0.7317469120025635 -0.026285577565431595 -0.0 0.0 -0.0 -2.221662759780884 -0.7335850596427917 0.20831839740276337 -0.0 0.0 -0.0 -65.4732894897461 -55.680091857910156 -56.64969253540039 -2.6207947731018066 72.82740783691406 2.887972116470337 2.6126508712768555 -2.502387285232544 16.373693466186523 -0.0 0.0 -0.0 12.808287620544434 8.811466217041016 3.854677677154541 -0.10904000699520111 35.68649673461914 -2.815890312194824 7.864709854125977 -17.1024169921875 32.123294830322266
-0.006550000034621917 54.329800605773926 0.04400000434543472 10.3431978225708 28.166400909423828 8.250808715820312 -19.351194381713867 11.28908920288086 5.2541399002075195 5.517616271972656 -9.920877456665039 1.5444549322128296 -8.890944480895996 17.95920753479004 -12.829702377319336 12.463502883911133 -26.888002395629883 -22.562301635742188 -0.0 0.0 -0.0 -0.0 0.0 -0.0 -0.0 0.0 -0.0 35.26470184326172 13.298917770385742 33.1923942565918 -14.786294937133789 -7.606675624847412 27.149791717529297 -0.44343048334121704 18.588205337524414 2.7091259956359863 -0.0 0.0 -0.0 -0.0 0.0 -0.0 -0.0 0.0 -0.0 7.73087739944458 5.47489595413208 0.41732463240623474 -0.0 0.0 -0.0 2.9054994583129883 0.9650753736495972 0.10300876200199127 -0.0 0.0 -0.0 10.278595924377441 0.7317469120025635 0.026285577565431595 -0.0 0.0 -0.0 2.221662759780884 -0.7335850596427917 -0.20831839740276337 -0.0 0.0 -0.0 -112.31399536132812 50.720298767089844 50.56900405883789 28.084495544433594 -39.943199157714844 -83.81990051269531 1.0196586847305298 -27.222976684570312 4.149885177612305 -0.0 0.0 -0.0 -0.0 0.0 -0.0 -0.0 0.0 -0.0 -7.73087739944458 5.47489595413208 -0.41732463240623474 -0.0 0.0 -0.0 -2.9054994583129883 0.9650753736495972 -0.10300876200199127 -0.0 0.0 -0.0 -10.278595924377441 0.7317469120025635 -0.026285577565431595 -0.0 0.0 -0.0 -2.221662759780884 -0.7335850596427917 0.20831839740276337 -0.0 0.0 -0.0 -65.5414047241211 -55.83330154418945 -56.64141082763672 -2.621345043182373 72.83251190185547 2.8919873237609863 2.602109432220459 -2.5185656547546387 16.26338768005371 -0.0 0.0 -0.0 12.762894630432129 8.725189208984375 3.9901676177978516 -0.10967186838388443 35.73670196533203 -2.8206937313079834 7.888003826141357 -17.13130760192871 32.142494201660156
